<svg width="147" height="75" viewBox="0 0 147 75" fill="none" xmlns="http://www.w3.org/2000/svg">
<path d="M25.7812 21.0938L9.25 59H0.4375L22.2188 13.5H27.7812L25.7812 21.0938ZM27.3125 59L23.7812 20.375L24.3125 13.5H29.5625L35.6562 59H27.3125ZM30.4375 42.0625L29.1875 49.0312H8.90625L10.1562 42.0625H30.4375Z" fill="#203239"/>
<path d="M53.4121 44.9824V30.4805H58.0879V49.5H53.6934L53.4121 44.9824ZM54.0098 41.0449L55.4512 41.0098C55.4512 42.2871 55.3105 43.4648 55.0293 44.543C54.748 45.6211 54.3086 46.5586 53.7109 47.3555C53.125 48.1406 52.3809 48.7559 51.4785 49.2012C50.5762 49.6348 49.5098 49.8516 48.2793 49.8516C47.3418 49.8516 46.4863 49.7227 45.7129 49.4648C44.9395 49.1953 44.2715 48.7793 43.709 48.2168C43.1582 47.6426 42.7305 46.9102 42.4258 46.0195C42.1211 45.1172 41.9688 44.0332 41.9688 42.7676V30.4805H46.6094V42.8027C46.6094 43.4355 46.6797 43.9629 46.8203 44.3848C46.9727 44.8066 47.1777 45.1523 47.4355 45.4219C47.7051 45.6797 48.0156 45.8672 48.3672 45.9844C48.7305 46.0898 49.1172 46.1426 49.5273 46.1426C50.6523 46.1426 51.5371 45.9199 52.1816 45.4746C52.8379 45.0176 53.3066 44.4082 53.5879 43.6465C53.8691 42.873 54.0098 42.0059 54.0098 41.0449ZM69.0798 30.4805L72.4724 36.5273L75.9177 30.4805H80.9627L75.3728 39.7969L81.1912 49.5H76.1462L72.5076 43.1543L68.8513 49.5H63.8064L69.6072 39.7969L64.0525 30.4805H69.0798ZM95.8921 30.4805V33.8203H84.9937V30.4805H95.8921ZM87.9116 25.8047H92.5698V44.0156C92.5698 44.5781 92.646 45.0117 92.7984 45.3164C92.9507 45.6211 93.1792 45.8262 93.4839 45.9316C93.7886 46.0371 94.1519 46.0898 94.5737 46.0898C94.8784 46.0898 95.1597 46.0723 95.4175 46.0371C95.6753 46.002 95.8921 45.9668 96.0679 45.9316L96.0855 49.4121C95.6987 49.541 95.2593 49.6465 94.7671 49.7285C94.2866 49.8105 93.7417 49.8516 93.1323 49.8516C92.0894 49.8516 91.1753 49.6758 90.3902 49.3242C89.605 48.9609 88.9956 48.3809 88.562 47.584C88.1284 46.7754 87.9116 45.709 87.9116 44.3848V25.8047ZM107.148 30.4805V49.5H102.49V30.4805H107.148ZM102.173 25.5059C102.173 24.8145 102.408 24.2402 102.876 23.7832C103.357 23.3262 104.001 23.0977 104.81 23.0977C105.618 23.0977 106.257 23.3262 106.726 23.7832C107.206 24.2402 107.447 24.8145 107.447 25.5059C107.447 26.1855 107.206 26.7539 106.726 27.2109C106.257 27.668 105.618 27.8965 104.81 27.8965C104.001 27.8965 103.357 27.668 102.876 27.2109C102.408 26.7539 102.173 26.1855 102.173 25.5059ZM120.899 49.5H116.224V28.7227C116.224 27.293 116.499 26.0918 117.05 25.1191C117.601 24.1348 118.386 23.3906 119.405 22.8867C120.425 22.3828 121.626 22.1309 123.009 22.1309C123.466 22.1309 123.899 22.1602 124.31 22.2188C124.731 22.2773 125.147 22.3594 125.558 22.4648L125.47 25.998C125.247 25.9395 125.001 25.8984 124.731 25.875C124.474 25.8516 124.187 25.8398 123.87 25.8398C123.237 25.8398 122.698 25.9512 122.253 26.1738C121.808 26.3965 121.468 26.7246 121.233 27.1582C121.011 27.5801 120.899 28.1016 120.899 28.7227V49.5ZM124.749 30.4805V33.8203H113.358V30.4805H124.749ZM136.427 47.3906L141.524 30.4805H146.499L138.87 52.3828C138.694 52.8516 138.466 53.3613 138.184 53.9121C137.915 54.4629 137.552 54.9844 137.095 55.4766C136.637 55.9805 136.063 56.3906 135.372 56.707C134.692 57.0234 133.866 57.1816 132.893 57.1816C132.471 57.1816 132.096 57.1523 131.768 57.0938C131.44 57.0352 131.095 56.959 130.731 56.8652V53.3848C130.848 53.3965 130.983 53.4023 131.136 53.4023C131.3 53.4141 131.44 53.4199 131.557 53.4199C132.237 53.4199 132.8 53.3379 133.245 53.1738C133.69 53.0215 134.048 52.7695 134.317 52.418C134.598 52.0781 134.833 51.6328 135.02 51.082L136.427 47.3906ZM133.913 30.4805L138.22 44.4902L138.975 49.3945L135.776 49.9746L128.903 30.4805H133.913Z" fill="#203239"/>
</svg>
